<?xml version="1.0" encoding="utf-8"?>
<!-- Generator: Adobe Illustrator 17.1.0, SVG Export Plug-In . SVG Version: 6.00 Build 0)  -->
<!DOCTYPE svg PUBLIC "-//W3C//DTD SVG 1.1//EN" "http://www.w3.org/Graphics/SVG/1.1/DTD/svg11.dtd">
<svg version="1.1" id="Layer_1" xmlns="http://www.w3.org/2000/svg" xmlns:xlink="http://www.w3.org/1999/xlink" x="0px" y="0px"
	 viewBox="0 0 30 30" enable-background="new 0 0 30 30" xml:space="preserve">
<g>
	<path fill="#00667D" d="M5,6.43C5,5.64,5.656,5,6.479,5h17.042C24.334,5,25,5.64,25,6.43v17.14c0,0.79-0.666,1.43-1.479,1.43H6.479
		C5.656,25,5,24.36,5,23.57V6.43z"/>
	<path fill="#FFFFFF" d="M16.03,23.43v-7.46H14v-2.69h2.03v-2.3c0-1.8,1.2-3.45,3.96-3.45c1.11,0,1.94,0.1,1.94,0.1l-0.06,2.51
		l-1.77-0.01c-0.99,0-1.15,0.45-1.15,1.19v1.96h2.99l-0.13,2.69h-2.86v7.46H16.03z"/>
</g>
</svg>
