<?xml version="1.0" encoding="utf-8"?>
<!-- Generator: Adobe Illustrator 17.1.0, SVG Export Plug-In . SVG Version: 6.00 Build 0)  -->
<!DOCTYPE svg PUBLIC "-//W3C//DTD SVG 1.1//EN" "http://www.w3.org/Graphics/SVG/1.1/DTD/svg11.dtd">
<svg version="1.1" id="Layer_1" xmlns="http://www.w3.org/2000/svg" xmlns:xlink="http://www.w3.org/1999/xlink" x="0px" y="0px"
	 viewBox="0 0 30 30" enable-background="new 0 0 30 30" xml:space="preserve">
<g>
	<path fill-rule="evenodd" clip-rule="evenodd" fill="#00657C" d="M8.185,12.685c0-3.1,2.52-5.62,5.62-5.62s5.63,2.52,5.63,5.62
		s-2.53,5.63-5.63,5.63S8.185,15.785,8.185,12.685z M24.445,20.235l-3.56-3.56c0.66-1.18,1.05-2.54,1.05-3.99
		c0-4.48-3.65-8.12-8.13-8.12s-8.12,3.64-8.12,8.12s3.64,8.13,8.12,8.13c1.68,0,3.24-0.51,4.53-1.39l3.46,3.47
		c0.37,0.36,0.85,0.54,1.33,0.54s0.96-0.18,1.32-0.54C25.185,22.155,25.185,20.975,24.445,20.235z"/>
</g>
</svg>
