<?xml version="1.0" encoding="utf-8"?>
<!-- Generator: Adobe Illustrator 17.1.0, SVG Export Plug-In . SVG Version: 6.00 Build 0)  -->
<!DOCTYPE svg PUBLIC "-//W3C//DTD SVG 1.1//EN" "http://www.w3.org/Graphics/SVG/1.1/DTD/svg11.dtd">
<svg version="1.1" id="Layer_1" xmlns="http://www.w3.org/2000/svg" xmlns:xlink="http://www.w3.org/1999/xlink" x="0px" y="0px"
	 viewBox="0 0 30 30" enable-background="new 0 0 30 30" xml:space="preserve">
<g>
	<path fill="#00667D" d="M5,6.43C5,5.64,5.666,5,6.479,5h17.042C24.344,5,25,5.64,25,6.43v17.14c0,0.79-0.656,1.43-1.479,1.43H6.479
		C5.666,25,5,24.36,5,23.57V6.43z"/>
	<path fill="#FFFFFF" d="M19.27,19.2c0,0.39-0.14,0.72-0.43,1c-0.28,0.27-0.63,0.41-1.03,0.41h-2.88c-1.21,0-2.23-0.41-3.09-1.24
		c-0.85-0.83-1.28-1.82-1.28-2.99v-5.67c0-0.4,0.14-0.74,0.43-1.01c0.28-0.27,0.63-0.41,1.04-0.41c0.4,0,0.74,0.14,1.02,0.42
		c0.29,0.27,0.43,0.61,0.43,0.99v2.06h4.11c0.37,0,0.69,0.13,0.96,0.39c0.27,0.25,0.4,0.56,0.4,0.92c0,0.36-0.13,0.67-0.4,0.93
		c-0.26,0.26-0.58,0.38-0.95,0.38h-4.12v1c0,0.39,0.14,0.72,0.42,0.99c0.28,0.28,0.62,0.41,1.02,0.41h2.89
		c0.4,0,0.75,0.14,1.03,0.42C19.13,18.48,19.27,18.81,19.27,19.2z"/>
</g>
</svg>
