<?xml version="1.0" encoding="utf-8"?>
<!-- Generator: Adobe Illustrator 17.1.0, SVG Export Plug-In . SVG Version: 6.00 Build 0)  -->
<!DOCTYPE svg PUBLIC "-//W3C//DTD SVG 1.1//EN" "http://www.w3.org/Graphics/SVG/1.1/DTD/svg11.dtd">
<svg version="1.1" id="Layer_1" xmlns="http://www.w3.org/2000/svg" xmlns:xlink="http://www.w3.org/1999/xlink" x="0px" y="0px"
	 viewBox="0 0 30 30" enable-background="new 0 0 30 30" xml:space="preserve">
<g>
	<path fill-rule="evenodd" clip-rule="evenodd" fill="#19647E" d="M15,4c-0.378,0-0.695,0.308-0.695,0.695v2.913
		c0,0.378,0.317,0.686,0.695,0.686s0.695-0.308,0.695-0.686V4.695C15.695,4.308,15.378,4,15,4z"/>
	<path fill-rule="evenodd" clip-rule="evenodd" fill="#19647E" d="M15,21.706c-0.378,0-0.695,0.308-0.695,0.686v2.913
		C14.305,25.692,14.622,26,15,26s0.695-0.308,0.695-0.695v-2.913C15.695,22.014,15.378,21.706,15,21.706z"/>
	<path fill-rule="evenodd" clip-rule="evenodd" fill="#19647E" d="M25.305,14.305h-2.913c-0.378,0-0.695,0.317-0.695,0.695
		s0.317,0.695,0.695,0.695h2.913C25.692,15.695,26,15.378,26,15S25.692,14.305,25.305,14.305z"/>
	<path fill-rule="evenodd" clip-rule="evenodd" fill="#19647E" d="M8.294,15c0-0.378-0.308-0.695-0.686-0.695H4.695
		C4.308,14.305,4,14.622,4,15s0.308,0.695,0.695,0.695h2.913C7.986,15.695,8.294,15.378,8.294,15z"/>
	<path fill-rule="evenodd" clip-rule="evenodd" fill="#19647E" d="M20.808,11.647c0.185,0.334,0.616,0.449,0.942,0.255l2.526-1.461
		c0.326-0.185,0.44-0.616,0.255-0.942c-0.194-0.326-0.616-0.44-0.95-0.255l-2.526,1.461C20.729,10.89,20.614,11.322,20.808,11.647z"
		/>
	<path fill-rule="evenodd" clip-rule="evenodd" fill="#19647E" d="M9.192,18.353c-0.185-0.334-0.616-0.449-0.942-0.255l-2.526,1.461
		c-0.326,0.185-0.44,0.616-0.255,0.942c0.194,0.334,0.616,0.44,0.95,0.255l2.526-1.461C9.271,19.11,9.386,18.678,9.192,18.353z"/>
	<path fill-rule="evenodd" clip-rule="evenodd" fill="#19647E" d="M18.353,9.192c0.326,0.194,0.757,0.079,0.942-0.246l1.461-2.526
		c0.185-0.334,0.079-0.757-0.255-0.95c-0.334-0.185-0.757-0.07-0.942,0.255L18.098,8.25C17.904,8.576,18.018,9.007,18.353,9.192z"/>
	<path fill-rule="evenodd" clip-rule="evenodd" fill="#19647E" d="M11.647,20.808c-0.326-0.194-0.757-0.079-0.942,0.246L9.245,23.58
		C9.06,23.914,9.166,24.337,9.5,24.53c0.334,0.185,0.757,0.07,0.942-0.255l1.461-2.526C12.096,21.424,11.982,20.993,11.647,20.808z"
		/>
	<path fill-rule="evenodd" clip-rule="evenodd" fill="#19647E" d="M10.442,5.725C10.257,5.399,9.834,5.285,9.5,5.47
		C9.166,5.663,9.06,6.086,9.245,6.42l1.461,2.526c0.185,0.326,0.616,0.44,0.942,0.246c0.334-0.185,0.449-0.616,0.255-0.942
		L10.442,5.725z"/>
	<path fill-rule="evenodd" clip-rule="evenodd" fill="#19647E" d="M19.294,21.054c-0.185-0.326-0.616-0.44-0.942-0.246
		c-0.334,0.185-0.449,0.616-0.255,0.942l1.461,2.526c0.185,0.326,0.607,0.44,0.942,0.255c0.334-0.194,0.44-0.616,0.255-0.95
		L19.294,21.054z"/>
	<path fill-rule="evenodd" clip-rule="evenodd" fill="#19647E" d="M5.725,10.442l2.526,1.461c0.326,0.194,0.757,0.079,0.942-0.255
		c0.194-0.326,0.079-0.757-0.246-0.942L6.42,9.245C6.086,9.06,5.663,9.174,5.47,9.5C5.285,9.826,5.399,10.257,5.725,10.442z"/>
	<path fill-rule="evenodd" clip-rule="evenodd" fill="#19647E" d="M24.275,19.558l-2.526-1.461
		c-0.326-0.194-0.757-0.079-0.942,0.255c-0.194,0.326-0.079,0.757,0.246,0.942l2.526,1.461c0.334,0.185,0.757,0.079,0.95-0.255
		C24.715,20.174,24.601,19.743,24.275,19.558z"/>
</g>
</svg>
