<?xml version="1.0" encoding="utf-8"?>
<!-- Generator: Adobe Illustrator 17.1.0, SVG Export Plug-In . SVG Version: 6.00 Build 0)  -->
<!DOCTYPE svg PUBLIC "-//W3C//DTD SVG 1.1//EN" "http://www.w3.org/Graphics/SVG/1.1/DTD/svg11.dtd">
<svg version="1.1" id="Layer_1" xmlns="http://www.w3.org/2000/svg" xmlns:xlink="http://www.w3.org/1999/xlink" x="0px" y="0px"
	 viewBox="0 0 46 64" enable-background="new 0 0 46 64" xml:space="preserve">
<g>
	<path fill="#A755A9" d="M43,22.653C43,11.526,34.046,2.5,23,2.5S3,11.526,3,22.653c0,4.068,1.2,7.846,3.262,11.013H6.2L23,61.5
		l16.8-27.834h-0.062C41.8,30.499,43,26.721,43,22.653z"/>
	<path fill="#FFFFFF" d="M23,38.976c8.944,0,16.195-7.308,16.195-16.323S31.944,6.33,23,6.33S6.795,13.638,6.795,22.653
		S14.056,38.976,23,38.976z"/>
	<g>
		<g>
			<path fill-rule="evenodd" clip-rule="evenodd" fill="#A755A9" d="M19.872,27.446c-0.995,0-1.805-0.818-1.805-1.822
				c0-1.004,0.81-1.811,1.805-1.811c0.995,0,1.805,0.807,1.805,1.811C21.677,26.628,20.867,27.446,19.872,27.446z M25.821,24.351
				h-1.815c-0.103-0.342-0.256-0.673-0.441-0.983l1.2-1.211c0.287-0.279,0.287-0.745,0-1.025l-0.503-0.518
				c-0.287-0.279-0.749-0.279-1.026,0l-1.221,1.232c-0.328-0.197-0.687-0.342-1.067-0.435v-1.604c0-0.393-0.318-0.725-0.718-0.725
				h-0.728c-0.39,0-0.718,0.331-0.718,0.725v1.604c-0.41,0.104-0.8,0.269-1.159,0.486L16.6,20.873c-0.277-0.279-0.738-0.29-1.015,0
				l-0.513,0.507c-0.277,0.29-0.277,0.745,0,1.035l1.046,1.045c-0.226,0.393-0.39,0.807-0.482,1.252h-1.364
				c-0.39,0-0.718,0.331-0.718,0.735v0.725c0,0.404,0.328,0.725,0.718,0.725h1.456c0.133,0.435,0.328,0.838,0.585,1.211
				l-0.985,0.983c-0.277,0.29-0.277,0.756,0,1.035l0.513,0.507c0.277,0.29,0.738,0.29,1.015,0l1.097-1.097
				c0.369,0.186,0.769,0.321,1.19,0.383v1.522c0,0.404,0.328,0.725,0.728,0.725h0.718c0.4,0,0.718-0.321,0.718-0.725v-1.708
				c0.369-0.124,0.708-0.3,1.026-0.528l1.159,1.18c0.287,0.279,0.738,0.279,1.026,0l0.503-0.518c0.287-0.279,0.287-0.745,0-1.025
				l-1.272-1.284c0.154-0.321,0.277-0.662,0.349-1.025h1.723c0.4,0,0.718-0.321,0.718-0.725v-0.725
				C26.538,24.682,26.221,24.351,25.821,24.351z"/>
		</g>
		<g>
			<path fill-rule="evenodd" clip-rule="evenodd" fill="#A755A9" d="M28.2,18.451c-0.636,0-1.149-0.518-1.149-1.159
				c0-0.631,0.513-1.149,1.149-1.149c0.636,0,1.149,0.518,1.149,1.149C29.349,17.933,28.836,18.451,28.2,18.451z M31.985,16.484
				h-1.149c-0.072-0.217-0.164-0.424-0.287-0.621l0.769-0.776c0.174-0.176,0.174-0.476,0-0.652l-0.328-0.331
				c-0.174-0.176-0.472-0.176-0.646,0l-0.779,0.787c-0.205-0.124-0.431-0.217-0.677-0.279v-1.014c0-0.259-0.205-0.466-0.462-0.466
				h-0.451c-0.256,0-0.462,0.207-0.462,0.466v1.014c-0.267,0.072-0.513,0.176-0.738,0.311l-0.656-0.652
				c-0.174-0.176-0.462-0.176-0.646,0L25.144,14.6c-0.174,0.176-0.174,0.476,0,0.652l0.667,0.673
				c-0.144,0.238-0.246,0.507-0.308,0.797h-0.862c-0.256,0-0.462,0.207-0.462,0.466v0.455c0,0.259,0.205,0.466,0.462,0.466h0.923
				c0.082,0.279,0.205,0.538,0.369,0.766l-0.626,0.631c-0.174,0.176-0.174,0.476,0,0.652l0.328,0.331
				c0.174,0.176,0.472,0.176,0.646,0l0.697-0.704c0.236,0.114,0.492,0.197,0.759,0.248v0.963c0,0.259,0.205,0.466,0.462,0.466h0.462
				c0.246,0,0.451-0.207,0.451-0.466V19.91c0.236-0.083,0.451-0.186,0.656-0.331l0.738,0.745c0.174,0.176,0.462,0.176,0.646,0
				l0.328-0.331c0.174-0.176,0.174-0.466,0-0.652l-0.81-0.818c0.092-0.207,0.174-0.414,0.215-0.652h1.097
				c0.256,0,0.462-0.207,0.462-0.455V16.95C32.446,16.691,32.241,16.484,31.985,16.484z"/>
		</g>
	</g>
</g>
</svg>
