<?xml version="1.0" encoding="utf-8"?>
<!-- Generator: Adobe Illustrator 17.0.2, SVG Export Plug-In . SVG Version: 6.00 Build 0)  -->
<!DOCTYPE svg PUBLIC "-//W3C//DTD SVG 1.1//EN" "http://www.w3.org/Graphics/SVG/1.1/DTD/svg11.dtd">
<svg version="1.1" id="Layer_1" xmlns="http://www.w3.org/2000/svg" xmlns:xlink="http://www.w3.org/1999/xlink" x="0px" y="0px"
	 width="46px" height="64px" viewBox="0 0 46 64" enable-background="new 0 0 46 64" xml:space="preserve">
<g>
	<path fill="#DEE100" d="M43,22.65C43,11.52,34.044,2.5,23,2.5S3,11.52,3,22.65c0,4.07,1.2,7.85,3.259,11.01H6.2L23,61.5l16.8-27.84
		h-0.059C41.8,30.5,43,26.72,43,22.65z"/>
	<path fill="#FFFFFF" d="M23,38.98c8.946,0,16.195-7.31,16.195-16.33c0-9.01-7.249-16.32-16.195-16.32S6.795,13.64,6.795,22.65
		C6.795,31.67,14.054,38.98,23,38.98z"/>
	<line fill="none" x1="3" y1="2.5" x2="3" y2="61.5"/>
	<polygon fill="#B3549F" points="22.541,21.81 16.171,21.81 16.171,22.73 22.541,22.73 22.541,29.16 23.459,29.16 23.459,22.73 
		29.839,22.73 29.839,21.81 23.459,21.81 23.459,15.39 22.541,15.39 	"/>
	
		<polygon fill="none" stroke="#DEE100" stroke-width="2" stroke-linecap="round" stroke-linejoin="round" stroke-miterlimit="10" points="
		22.541,21.81 16.171,21.81 16.171,22.73 22.541,22.73 22.541,29.16 23.459,29.16 23.459,22.73 29.839,22.73 29.839,21.81 
		23.459,21.81 23.459,15.39 22.541,15.39 	"/>
</g>
</svg>
