<?xml version="1.0" encoding="utf-8"?>
<!-- Generator: Adobe Illustrator 17.1.0, SVG Export Plug-In . SVG Version: 6.00 Build 0)  -->
<!DOCTYPE svg PUBLIC "-//W3C//DTD SVG 1.1//EN" "http://www.w3.org/Graphics/SVG/1.1/DTD/svg11.dtd">
<svg version="1.1" id="Layer_1" xmlns="http://www.w3.org/2000/svg" xmlns:xlink="http://www.w3.org/1999/xlink" x="0px" y="0px"
	 viewBox="0 0 46 64" enable-background="new 0 0 46 64" xml:space="preserve">
<g>
	<g>
		<path fill="#AD55A4" d="M42.618,22.642c0-11.116-8.857-20.142-19.801-20.142S3,11.526,3,22.642c0,4.067,1.195,7.843,3.234,11.019
			H6.17L22.817,61.5l16.631-27.839H39.4C41.439,30.485,42.618,26.709,42.618,22.642z"/>
		<path fill="#FFFFFF" d="M22.817,38.976c8.857,0,16.041-7.308,16.041-16.334c0-9.01-7.184-16.318-16.041-16.318
			S6.759,13.632,6.759,22.642C6.759,31.668,13.96,38.976,22.817,38.976z"/>
	</g>
	<g>
		<path fill="#AC54A4" d="M25.332,29.5h-2.968v-9.734h-1.048h-1.071h-1.026h-0.356V17.61c2.61-0.091,3.726-0.885,4.15-2.995h2.32
			V29.5z"/>
	</g>
</g>
</svg>
