<?xml version="1.0" encoding="utf-8"?>
<!-- Generator: Adobe Illustrator 17.1.0, SVG Export Plug-In . SVG Version: 6.00 Build 0)  -->
<!DOCTYPE svg PUBLIC "-//W3C//DTD SVG 1.1//EN" "http://www.w3.org/Graphics/SVG/1.1/DTD/svg11.dtd">
<svg version="1.1" id="Layer_1" xmlns="http://www.w3.org/2000/svg" xmlns:xlink="http://www.w3.org/1999/xlink" x="0px" y="0px"
	 viewBox="0 0 46 64" enable-background="new 0 0 46 64" xml:space="preserve">
<g>
	<g>
		<path fill="#AD55A4" d="M42.896,22.642c0-11.116-8.857-20.142-19.801-20.142S3.279,11.526,3.279,22.642
			c0,4.067,1.195,7.843,3.234,11.019H6.449L23.096,61.5l16.631-27.839h-0.048C41.718,30.485,42.896,26.709,42.896,22.642z"/>
		<path fill="#FFFFFF" d="M23.096,38.976c8.857,0,16.041-7.308,16.041-16.334c0-9.01-7.184-16.318-16.041-16.318
			S7.038,13.632,7.038,22.642C7.038,31.668,14.239,38.976,23.096,38.976z"/>
	</g>
	<g>
		<path fill="#AC54A4" d="M28.332,29.5H17.624c0-1.611,0.513-3.086,1.494-4.152c0.736-0.816,1.183-1.135,4.217-3.244
			c1.428-0.999,1.918-1.725,1.918-2.859c0-1.271-0.848-2.133-2.074-2.133c-1.54,0-2.32,1.066-2.388,3.268h-2.833
			c-0.022-0.159-0.022-0.295-0.022-0.341c0-3.357,2.075-5.536,5.287-5.536c3.012,0,5.042,1.838,5.042,4.561
			c0,1.498-0.558,2.7-1.74,3.744c-0.29,0.227-0.58,0.454-1.539,1.111c-0.647,0.432-0.424,0.272-0.714,0.477l-0.245,0.159
			l-0.224,0.159c-1.36,0.952-1.94,1.475-2.454,2.269c1.138-0.068,1.696-0.091,2.499-0.091h4.484V29.5z"/>
	</g>
</g>
</svg>
