<?xml version="1.0" encoding="utf-8"?>
<!-- Generator: Adobe Illustrator 17.1.0, SVG Export Plug-In . SVG Version: 6.00 Build 0)  -->
<!DOCTYPE svg PUBLIC "-//W3C//DTD SVG 1.1//EN" "http://www.w3.org/Graphics/SVG/1.1/DTD/svg11.dtd">
<svg version="1.1" id="Layer_1" xmlns="http://www.w3.org/2000/svg" xmlns:xlink="http://www.w3.org/1999/xlink" x="0px" y="0px"
	 viewBox="0 0 46 64" enable-background="new 0 0 46 64" xml:space="preserve">
<g>
	<g>
		<path fill="#AD55A4" d="M42.896,22.642c0-11.116-8.857-20.142-19.801-20.142S3.279,11.526,3.279,22.642
			c0,4.067,1.195,7.843,3.234,11.019H6.449L23.096,61.5l16.631-27.839h-0.048C41.718,30.485,42.896,26.709,42.896,22.642z"/>
		<path fill="#FFFFFF" d="M23.096,38.976c8.857,0,16.041-7.308,16.041-16.334c0-9.01-7.184-16.318-16.041-16.318
			S7.038,13.632,7.038,22.642C7.038,31.668,14.239,38.976,23.096,38.976z"/>
	</g>
	<g>
		<path fill="#AC54A4" d="M17.936,19.448c0.112-3.062,2.03-4.946,5.02-4.946c2.945,0,4.908,1.634,4.908,4.039
			c0,1.452-0.804,2.609-2.053,2.949c1.629,0.386,2.61,1.68,2.61,3.427c0,2.836-2.253,4.81-5.421,4.81
			c-3.324,0-5.421-1.996-5.421-5.173V24.35h2.855c0,1.815,0.893,2.813,2.521,2.813c1.405,0,2.387-0.908,2.387-2.224
			c0-1.452-0.937-2.224-2.654-2.224c-0.29,0-0.469,0-0.736,0.045v-2.155c0.224,0.022,0.38,0.022,0.491,0.022
			c1.718,0,2.565-0.612,2.565-1.86c0-1.089-0.804-1.815-2.03-1.815c-1.383,0-2.164,0.862-2.208,2.496H17.936z"/>
	</g>
</g>
</svg>
