<?xml version="1.0" encoding="utf-8"?>
<!-- Generator: Adobe Illustrator 17.1.0, SVG Export Plug-In . SVG Version: 6.00 Build 0)  -->
<!DOCTYPE svg PUBLIC "-//W3C//DTD SVG 1.1//EN" "http://www.w3.org/Graphics/SVG/1.1/DTD/svg11.dtd">
<svg version="1.1" id="Layer_1" xmlns="http://www.w3.org/2000/svg" xmlns:xlink="http://www.w3.org/1999/xlink" x="0px" y="0px"
	 viewBox="0 0 46 64" enable-background="new 0 0 46 64" xml:space="preserve">
<g>
	<path fill="#FFFFFF" d="M22.995,38.977c8.972,0,16.244-7.319,16.244-16.348S31.967,6.281,22.995,6.281S6.751,13.6,6.751,22.629
		S14.023,38.977,22.995,38.977"/>
	<g>
		<polygon fill="#196681" points="22.086,25.656 16.921,25.656 16.921,16.982 14.624,16.982 14.624,27.617 22.086,27.617 		"/>
		<path fill="#196681" d="M31.53,20.139c-0.079-2.153-1.553-3.412-4.008-3.412c-2.535,0-4.135,1.244-4.135,3.205
			c0,1.132,0.539,2.009,1.489,2.471c0.396,0.175,1.188,0.447,1.853,0.638c1.41,0.382,1.03,0.287,1.157,0.319
			c0.38,0.112,0.65,0.207,0.919,0.303c0.57,0.223,0.808,0.526,0.808,0.988c0,0.877-0.745,1.419-1.933,1.419
			c-1.537,0-2.297-0.654-2.376-2.009h-2.297c0.047,2.408,1.711,3.811,4.531,3.811c2.741,0,4.405-1.291,4.405-3.444
			c0-0.973-0.428-1.77-1.236-2.328c-0.522-0.351-1.172-0.59-2.535-0.925c-2.297-0.574-2.566-0.718-2.566-1.435
			c0-0.765,0.65-1.212,1.727-1.212c1.22,0,1.917,0.558,1.996,1.61H31.53z"/>
	</g>
	<path fill="#196681" d="M39.225,22.628c0,1.966-0.346,3.851-0.978,5.596c-2.27,6.264-8.241,10.738-15.252,10.738
		S10.014,34.489,7.743,28.225c-0.633-1.746-0.978-3.63-0.978-5.596c0-9.021,7.266-16.334,16.23-16.334
		C31.958,6.294,39.225,13.607,39.225,22.628 M42.995,22.628c0-11.116-8.955-20.128-20-20.128c-11.046,0-20,9.012-20,20.128
		c0,1.943,0.278,3.819,0.789,5.596c0.45,1.564,1.081,3.048,1.872,4.43l0.452,0.753L22.995,61.5l16.889-28.096l0.447-0.745
		c0.792-1.383,1.424-2.869,1.874-4.435C42.716,26.448,42.995,24.571,42.995,22.628"/>
</g>
</svg>
