<?xml version="1.0" encoding="utf-8"?>
<!-- Generator: Adobe Illustrator 17.0.2, SVG Export Plug-In . SVG Version: 6.00 Build 0)  -->
<!DOCTYPE svg PUBLIC "-//W3C//DTD SVG 1.1//EN" "http://www.w3.org/Graphics/SVG/1.1/DTD/svg11.dtd">
<svg version="1.1" id="Layer_1" xmlns="http://www.w3.org/2000/svg" xmlns:xlink="http://www.w3.org/1999/xlink" x="0px" y="0px"
	 width="289px" height="83px" viewBox="0 0 289 83" enable-background="new 0 0 289 83" xml:space="preserve">
<g>
	<path fill="#D1DD00" d="M29.904,48.46c10.947,0,19.821-8.874,19.821-19.821S40.851,8.817,29.904,8.817s-19.821,8.874-19.821,19.821
		S18.957,48.46,29.904,48.46"/>
	<g>
		<polygon fill="#FFFFFF" points="28.795,32.308 22.493,32.308 22.493,21.791 19.69,21.791 19.69,34.686 28.795,34.686 		"/>
		<path fill="#FFFFFF" d="M40.319,25.619c-0.097-2.61-1.895-4.137-4.891-4.137c-3.093,0-5.045,1.508-5.045,3.886
			c0,1.372,0.657,2.436,1.817,2.996c0.483,0.212,1.45,0.542,2.261,0.774c1.721,0.463,1.257,0.348,1.412,0.386
			c0.464,0.135,0.793,0.251,1.121,0.367c0.696,0.271,0.986,0.637,0.986,1.198c0,1.063-0.909,1.721-2.359,1.721
			c-1.875,0-2.803-0.793-2.9-2.436h-2.803c0.058,2.919,2.088,4.62,5.528,4.62c3.345,0,5.375-1.565,5.375-4.175
			c0-1.18-0.522-2.146-1.508-2.823c-0.637-0.425-1.43-0.715-3.093-1.121c-2.803-0.696-3.132-0.87-3.132-1.74
			c0-0.928,0.793-1.47,2.107-1.47c1.489,0,2.339,0.677,2.436,1.953H40.319z"/>
	</g>
	<g>
		<path fill="#196681" d="M49.708,28.637c0,2.384-0.422,4.669-1.194,6.785c-2.77,7.595-10.056,13.019-18.61,13.019
			s-15.84-5.424-18.61-13.019c-0.772-2.116-1.194-4.401-1.194-6.785c0-10.938,8.866-19.804,19.804-19.804
			C40.841,8.834,49.708,17.7,49.708,28.637 M54.309,28.637c0-13.478-10.927-24.404-24.404-24.404C16.426,4.233,5.5,15.16,5.5,28.637
			c0,2.355,0.34,4.631,0.963,6.785c0.549,1.896,1.319,3.696,2.284,5.371l0.552,0.913l20.606,34.06l20.609-34.065l0.546-0.903
			c0.966-1.677,1.738-3.478,2.286-5.377C53.968,33.268,54.309,30.993,54.309,28.637"/>
		<path fill="#196681" d="M281.765,27.35c-0.31-3.943-3.016-5.916-8.119-5.916c-5.22,0-8.197,2.049-8.197,5.684
			c0,1.779,0.85,3.287,2.281,4.098c1.121,0.619,1.894,0.851,5.413,1.663c3.518,0.774,4.214,1.199,4.214,2.436
			c0,1.47-1.314,2.359-3.441,2.359c-2.512,0-3.711-0.967-3.943-3.132h-4.911c0.271,4.369,3.248,6.573,8.777,6.573
			c5.335,0,8.661-2.398,8.661-6.264c0-3.17-1.895-4.678-7.308-5.76c-4.06-0.85-4.601-1.121-4.601-2.436
			c0-1.122,1.082-1.779,2.9-1.779c2.204,0,3.209,0.696,3.48,2.474H281.765z M250.362,29.323c0.271-2.591,1.895-4.215,4.176-4.215
			c2.281,0,3.712,1.508,4.021,4.215H250.362z M258.559,34.813c-0.773,1.855-1.933,2.629-3.828,2.629
			c-2.745,0-4.253-1.701-4.369-4.833h13.416v-0.773c0-6.264-3.672-10.401-9.202-10.401c-5.452,0-9.434,4.176-9.434,9.86
			c0,5.916,3.79,9.821,9.55,9.821c4.369,0,7.772-2.436,8.777-6.302H258.559z M238.586,33.46c-0.387,2.512-1.779,3.789-4.06,3.789
			c-2.668,0-4.292-2.242-4.292-5.916c0-3.828,1.663-6.032,4.486-6.032c1.972,0,3.325,1.16,3.711,3.17h5.026
			c-0.425-4.368-3.789-7.037-8.815-7.037c-5.761,0-9.55,3.983-9.55,10.014c0,5.839,3.789,9.666,9.472,9.666
			c5.026,0,8.352-2.823,9.009-7.655H238.586z M222.37,21.937h-5.104v18.675h5.104V21.937z M222.37,14.824h-5.104v4.369h5.104V14.824
			z M215.218,21.937h-5.142l-2.359,7.578c-0.927,3.016-1.276,4.408-1.662,6.418c-0.193-1.121-0.31-1.663-0.464-2.32
			c-0.348-1.431-0.889-3.287-1.16-4.215l-2.398-7.462h-5.374l6.457,18.675h5.76L215.218,21.937z M195.283,21.629
			c-0.502-0.039-0.927-0.078-1.159-0.078c-2.707,0-4.679,1.238-6.032,3.828v-3.441h-4.871v18.675h5.103v-7.81
			c0-2.087,0.193-3.286,0.696-4.214c0.812-1.546,2.397-2.436,4.253-2.436c0.58,0,1.083,0.039,2.01,0.193V21.629z M167.136,29.323
			c0.27-2.591,1.894-4.215,4.175-4.215s3.712,1.508,4.022,4.215H167.136z M175.333,34.813c-0.774,1.855-1.934,2.629-3.828,2.629
			c-2.745,0-4.253-1.701-4.368-4.833h13.416v-0.773c0-6.264-3.673-10.401-9.202-10.401c-5.452,0-9.434,4.176-9.434,9.86
			c0,5.916,3.789,9.821,9.55,9.821c4.368,0,7.771-2.436,8.776-6.302H175.333z M159.326,22.479c-0.193-5.22-3.789-8.274-9.782-8.274
			c-6.186,0-10.091,3.016-10.091,7.772c0,2.745,1.314,4.872,3.634,5.993c0.967,0.425,2.9,1.082,4.524,1.546
			c3.441,0.928,2.513,0.696,2.823,0.774c0.927,0.27,1.585,0.502,2.242,0.734c1.392,0.542,1.972,1.276,1.972,2.398
			c0,2.126-1.817,3.441-4.717,3.441c-3.751,0-5.607-1.585-5.8-4.872h-5.606c0.116,5.838,4.176,9.24,11.058,9.24
			c6.689,0,10.749-3.132,10.749-8.351c0-2.359-1.044-4.292-3.016-5.645c-1.276-0.85-2.861-1.431-6.186-2.242
			c-5.606-1.392-6.263-1.74-6.263-3.48c0-1.856,1.585-2.938,4.214-2.938c2.977,0,4.679,1.353,4.872,3.905H159.326z M122.132,25.417
			c2.706,0,4.446,2.242,4.446,5.645c0,3.634-1.701,5.877-4.485,5.877s-4.447-2.242-4.447-5.877
			C117.646,27.621,119.387,25.417,122.132,25.417 M117.84,14.824h-5.104v25.788h4.872v-2.359c1.237,1.895,3.209,2.862,5.799,2.862
			c4.988,0,8.313-4.06,8.313-10.13c0-5.684-3.248-9.588-7.965-9.588c-2.552,0-4.524,0.928-5.916,2.822V14.824z M104.346,33.614
			c0,2.552-1.74,4.176-4.524,4.176c-1.778,0-2.861-0.967-2.861-2.513c0-1.702,0.928-2.359,3.789-2.823
			c2.32-0.348,2.706-0.425,3.596-0.967V33.614z M109.952,40.612c-0.502-1.237-0.657-2.359-0.657-5.026l0.078-7.887
			c0-2.398-0.386-3.48-1.624-4.485c-1.431-1.199-3.673-1.779-6.65-1.779c-5.335,0-8.274,2.127-8.583,6.225h4.833
			c0.348-2.01,1.314-2.784,3.596-2.784c2.359,0,3.441,0.774,3.441,2.436c0,1.508-0.503,1.74-4.524,2.242
			c-2.668,0.348-3.751,0.58-4.756,0.966c-2.242,0.89-3.402,2.591-3.402,4.95c0,3.479,2.474,5.645,6.38,5.645
			c2.706,0,4.717-0.735,6.341-2.32c0,0.696,0.039,0.967,0.309,1.817H109.952z M90.068,35.857H77.463V14.824h-5.606v25.788h18.211
			V35.857z"/>
		<path fill="#196681" d="M193.597,54.38h-1.608v6.162h1.684v-3.189c0-0.536,0.051-0.83,0.166-1.085
			c0.204-0.421,0.651-0.676,1.175-0.676c0.778,0,1.058,0.37,1.058,1.416v3.534h1.684v-3.878c0-0.804-0.089-1.212-0.331-1.608
			c-0.332-0.524-0.983-0.842-1.774-0.842c-0.893,0-1.518,0.306-2.054,1.02V54.38z M187.655,55.464c0.944,0,1.493,0.74,1.493,2.016
			c0,1.238-0.561,1.978-1.48,1.978c-0.944,0-1.506-0.74-1.506-1.991S186.724,55.464,187.655,55.464 M187.642,54.214
			c-1.888,0-3.177,1.314-3.177,3.266c0,1.927,1.289,3.228,3.203,3.228c1.914,0,3.176-1.289,3.176-3.241
			C190.845,55.477,189.595,54.214,187.642,54.214 M183.314,54.38h-1.684v6.162h1.684V54.38z M183.314,52.032h-1.684v1.442h1.684
			V52.032z M180.561,54.38h-1.251v-1.863h-1.684v1.863h-1.033v1.135h1.033v2.846c0,1.058,0.038,1.339,0.242,1.646
			c0.281,0.447,0.753,0.625,1.697,0.625c0.306,0,0.586-0.013,0.995-0.064v-1.289c-0.217,0.025-0.358,0.038-0.511,0.038
			c-0.638,0-0.74-0.128-0.74-0.893v-2.91h1.251V54.38z M174.304,58.233c0,0.842-0.574,1.377-1.493,1.377
			c-0.587,0-0.944-0.319-0.944-0.829c0-0.561,0.306-0.779,1.251-0.931c0.766-0.115,0.894-0.141,1.187-0.319V58.233z M176.154,60.542
			c-0.166-0.408-0.217-0.778-0.217-1.659l0.026-2.603c0-0.791-0.128-1.148-0.536-1.48c-0.473-0.396-1.213-0.586-2.195-0.586
			c-1.76,0-2.731,0.701-2.832,2.054h1.595c0.115-0.663,0.434-0.919,1.187-0.919c0.778,0,1.136,0.255,1.136,0.804
			c0,0.498-0.166,0.574-1.493,0.74c-0.881,0.115-1.238,0.191-1.57,0.319c-0.74,0.293-1.123,0.855-1.123,1.634
			c0,1.148,0.817,1.863,2.105,1.863c0.894,0,1.557-0.242,2.092-0.766c0,0.229,0.013,0.319,0.103,0.599H176.154z M161.249,54.38
			h-1.608v6.162h1.684v-3.343c0-1.084,0.395-1.608,1.225-1.608c0.676,0,0.944,0.345,0.944,1.2v3.751h1.684v-3.343
			c0-0.523,0.026-0.753,0.116-0.956c0.179-0.396,0.586-0.651,1.046-0.651c0.753,0,1.02,0.345,1.02,1.276v3.674h1.684v-4.147
			c0-1.403-0.753-2.181-2.092-2.181c-0.855,0-1.493,0.318-2.016,1.02c-0.331-0.689-0.893-1.02-1.722-1.02
			c-0.855,0-1.442,0.306-1.965,1.007V54.38z M155.307,55.464c0.944,0,1.493,0.74,1.493,2.016c0,1.238-0.561,1.978-1.48,1.978
			c-0.944,0-1.505-0.74-1.505-1.991S154.376,55.464,155.307,55.464 M155.295,54.214c-1.889,0-3.177,1.314-3.177,3.266
			c0,1.927,1.289,3.228,3.202,3.228c1.914,0,3.177-1.289,3.177-3.241C158.497,55.477,157.246,54.214,155.295,54.214 M151.569,54.38
			h-1.251v-1.863h-1.684v1.863h-1.033v1.135h1.033v2.846c0,1.058,0.039,1.339,0.242,1.646c0.281,0.447,0.753,0.625,1.697,0.625
			c0.306,0,0.587-0.013,0.995-0.064v-1.289c-0.217,0.025-0.357,0.038-0.511,0.038c-0.638,0-0.74-0.128-0.74-0.893v-2.91h1.251V54.38
			z M146.828,54.38h-1.684v3.062c0,0.612-0.039,0.931-0.166,1.174c-0.217,0.46-0.638,0.715-1.162,0.715
			c-0.51,0-0.868-0.204-0.995-0.574c-0.076-0.216-0.089-0.37-0.089-0.969V54.38h-1.684v3.904c0,1.633,0.689,2.424,2.131,2.424
			c0.893,0,1.544-0.332,2.041-1.034v0.868h1.608V54.38z M138.114,58.233c0,0.842-0.574,1.377-1.493,1.377
			c-0.586,0-0.944-0.319-0.944-0.829c0-0.561,0.306-0.779,1.251-0.931c0.766-0.115,0.894-0.141,1.187-0.319V58.233z M139.964,60.542
			c-0.166-0.408-0.216-0.778-0.216-1.659l0.025-2.603c0-0.791-0.128-1.148-0.536-1.48c-0.473-0.396-1.213-0.586-2.195-0.586
			c-1.76,0-2.731,0.701-2.832,2.054h1.595c0.115-0.663,0.434-0.919,1.187-0.919c0.779,0,1.136,0.255,1.136,0.804
			c0,0.498-0.166,0.574-1.493,0.74c-0.881,0.115-1.238,0.191-1.57,0.319c-0.74,0.293-1.123,0.855-1.123,1.634
			c0,1.148,0.817,1.863,2.105,1.863c0.894,0,1.557-0.242,2.093-0.766c0,0.229,0.012,0.319,0.102,0.599H139.964z M130.229,54.38
			h-1.747l-0.957,2.934c-0.115,0.383-0.216,0.74-0.421,1.519c-0.166-0.74-0.268-1.085-0.383-1.429l-1.02-3.024h-1.825l2.195,5.792
			c0.038,0.09,0.051,0.23,0.051,0.383c0,0.549-0.268,0.779-0.97,0.779h-0.472h-0.204v1.39l0.702,0.013h0.115h0.319
			c0.689,0,1.11-0.141,1.493-0.524c0.306-0.319,0.485-0.676,0.868-1.696L130.229,54.38z M123.454,54.278
			c-0.166-0.013-0.306-0.026-0.383-0.026c-0.893,0-1.544,0.408-1.991,1.263V54.38h-1.608v6.162h1.684v-2.577
			c0-0.689,0.064-1.085,0.229-1.391c0.268-0.51,0.792-0.804,1.404-0.804c0.191,0,0.357,0.013,0.663,0.064V54.278z M115.139,55.464
			c0.944,0,1.493,0.74,1.493,2.016c0,1.238-0.561,1.978-1.48,1.978c-0.944,0-1.506-0.74-1.506-1.991S114.208,55.464,115.139,55.464
			 M115.126,54.214c-1.888,0-3.177,1.314-3.177,3.266c0,1.927,1.289,3.228,3.203,3.228c1.914,0,3.176-1.289,3.176-3.241
			C118.329,55.477,117.078,54.214,115.126,54.214 M111.401,54.38h-1.251v-1.863h-1.684v1.863h-1.034v1.135h1.034v2.846
			c0,1.058,0.038,1.339,0.242,1.646c0.28,0.447,0.753,0.625,1.696,0.625c0.306,0,0.587-0.013,0.995-0.064v-1.289
			c-0.216,0.025-0.357,0.038-0.511,0.038c-0.637,0-0.74-0.128-0.74-0.893v-2.91h1.251V54.38z M105.143,58.233
			c0,0.842-0.574,1.377-1.492,1.377c-0.587,0-0.944-0.319-0.944-0.829c0-0.561,0.306-0.779,1.251-0.931
			c0.765-0.115,0.893-0.141,1.186-0.319V58.233z M106.994,60.542c-0.166-0.408-0.217-0.778-0.217-1.659l0.026-2.603
			c0-0.791-0.128-1.148-0.536-1.48c-0.472-0.396-1.212-0.586-2.194-0.586c-1.761,0-2.731,0.701-2.833,2.054h1.596
			c0.115-0.663,0.434-0.919,1.187-0.919c0.778,0,1.135,0.255,1.135,0.804c0,0.498-0.166,0.574-1.493,0.74
			c-0.88,0.115-1.238,0.191-1.569,0.319c-0.74,0.293-1.123,0.855-1.123,1.634c0,1.148,0.817,1.863,2.105,1.863
			c0.893,0,1.557-0.242,2.092-0.766c0,0.229,0.013,0.319,0.102,0.599H106.994z M100.53,54.278c-0.166-0.013-0.306-0.026-0.383-0.026
			c-0.893,0-1.544,0.408-1.991,1.263V54.38h-1.608v6.162h1.684v-2.577c0-0.689,0.064-1.085,0.229-1.391
			c0.268-0.51,0.792-0.804,1.404-0.804c0.191,0,0.357,0.013,0.663,0.064V54.278z M92.215,55.464c0.944,0,1.493,0.74,1.493,2.016
			c0,1.238-0.561,1.978-1.48,1.978c-0.944,0-1.506-0.74-1.506-1.991S91.284,55.464,92.215,55.464 M92.202,54.214
			c-1.888,0-3.177,1.314-3.177,3.266c0,1.927,1.289,3.228,3.203,3.228c1.914,0,3.176-1.289,3.176-3.241
			C95.404,55.477,94.155,54.214,92.202,54.214 M85.021,55.528c0.894,0,1.468,0.74,1.468,1.863c0,1.2-0.561,1.94-1.48,1.94
			c-0.919,0-1.468-0.74-1.468-1.94C83.541,56.256,84.116,55.528,85.021,55.528 M83.605,52.032h-1.684v8.51h1.608v-0.778
			c0.409,0.625,1.059,0.944,1.915,0.944c1.646,0,2.743-1.34,2.743-3.343c0-1.876-1.071-3.164-2.628-3.164
			c-0.843,0-1.493,0.306-1.953,0.931V52.032z M78.906,58.233c0,0.842-0.574,1.377-1.493,1.377c-0.587,0-0.944-0.319-0.944-0.829
			c0-0.561,0.306-0.779,1.251-0.931c0.766-0.115,0.893-0.141,1.187-0.319V58.233z M80.756,60.542
			c-0.166-0.408-0.217-0.778-0.217-1.659l0.026-2.603c0-0.791-0.128-1.148-0.536-1.48c-0.473-0.396-1.213-0.586-2.195-0.586
			c-1.761,0-2.731,0.701-2.832,2.054h1.595c0.115-0.663,0.434-0.919,1.187-0.919c0.778,0,1.136,0.255,1.136,0.804
			c0,0.498-0.166,0.574-1.493,0.74c-0.881,0.115-1.238,0.191-1.57,0.319c-0.74,0.293-1.123,0.855-1.123,1.634
			c0,1.148,0.817,1.863,2.105,1.863c0.894,0,1.557-0.242,2.092-0.766c0,0.229,0.013,0.319,0.103,0.599H80.756z M73.613,52.032
			h-1.684v8.51h1.684V52.032z"/>
	</g>
</g>
</svg>
